<svg width="20" height="20" viewBox="0 0 20 20" fill="none" xmlns="http://www.w3.org/2000/svg">
<path d="M-1 8C-1 3.02944 3.02944 -1 8 -1H12C16.9706 -1 21 3.02944 21 8H19C19 4.13401 15.866 1 12 1H8C4.13401 1 1 4.13401 1 8H-1ZM21 12C21 16.9706 16.9706 21 12 21H8C3.02944 21 -1 16.9706 -1 12H1C1 15.866 4.13401 19 8 19H12C15.866 19 19 15.866 19 12H21ZM8 21C3.02944 21 -1 16.9706 -1 12V8C-1 3.02944 3.02944 -1 8 -1V1C4.13401 1 1 4.13401 1 8V12C1 15.866 4.13401 19 8 19V21ZM12 -1C16.9706 -1 21 3.02944 21 8V12C21 16.9706 16.9706 21 12 21V19C15.866 19 19 15.866 19 12V8C19 4.13401 15.866 1 12 1V-1Z" fill="#E1E8EE" mask="url(#path-2-inside-1_0_9)"/>
</svg>
